<svg xmlns="http://www.w3.org/2000/svg" width="19" height="19" viewBox="0 0 19 19" fill="none">
  <g opacity="0.45">
    <path d="M8.04842 12.9517V12.3017C7.68943 12.3017 7.39842 12.5928 7.39842 12.9517H8.04842ZM12.9518 8.04837V7.39837C12.5928 7.39837 12.3018 7.68939 12.3018 8.04837H12.9518ZM8.69842 15.0161V12.9517H7.39842V15.0161H8.69842ZM9.04842 15.3661C8.85512 15.3661 8.69842 15.2094 8.69842 15.0161H7.39842C7.39842 15.9274 8.13715 16.6661 9.04842 16.6661V15.3661ZM15.0161 15.3661H9.04842V16.6661H15.0161V15.3661ZM15.3661 15.0161C15.3661 15.2094 15.2094 15.3661 15.0161 15.3661V16.6661C15.9274 16.6661 16.6661 15.9274 16.6661 15.0161H15.3661ZM15.3661 9.04837V15.0161H16.6661V9.04837H15.3661ZM15.0161 8.69837C15.2094 8.69837 15.3661 8.85507 15.3661 9.04837H16.6661C16.6661 8.1371 15.9274 7.39837 15.0161 7.39837V8.69837ZM12.9518 8.69837H15.0161V7.39837H12.9518V8.69837ZM12.3018 8.04837V11.9517H13.6018V8.04837H12.3018ZM12.3018 11.9517C12.3018 12.145 12.1451 12.3017 11.9518 12.3017V13.6017C12.863 13.6017 13.6018 12.863 13.6018 11.9517H12.3018ZM11.9518 12.3017H8.04842V13.6017H11.9518V12.3017Z" fill="white"/>
    <rect x="4.98387" y="4.98386" width="7.96777" height="7.96777" rx="1" stroke="white" stroke-width="1.3" stroke-linecap="round" stroke-linejoin="round"/>
  </g>
</svg>