<svg xmlns="http://www.w3.org/2000/svg" width="128" height="20" viewBox="0 0 128 20" fill="none">
  <path fill-rule="evenodd" clip-rule="evenodd" d="M9.46427 0C6.95419 0 4.54692 0.997126 2.77202 2.77202C0.997126 4.54692 0 6.95419 0 9.46427V18.6299C0 18.7281 0.0389906 18.8222 0.108394 18.8916C0.177798 18.961 0.27193 19 0.370081 19H1.79282C1.89097 19 1.9851 18.961 2.0545 18.8916C2.12391 18.8222 2.1629 18.7281 2.1629 18.6299V9.46427C2.1629 7.52754 2.93226 5.67014 4.30173 4.30067C5.67121 2.93119 7.52861 2.16183 9.46534 2.16183H16.2974V9.53573C16.2974 11.4725 15.5281 13.3299 14.1586 14.6993C12.7891 16.0688 10.9317 16.8382 8.995 16.8382H6.29245V11.2923H13.5725C13.6706 11.2923 13.7648 11.2533 13.8342 11.1839C13.9036 11.1145 13.9426 11.0204 13.9426 10.9222V9.49947C13.9426 9.40132 13.9036 9.30718 13.8342 9.23778C13.7648 9.16838 13.6706 9.12938 13.5725 9.12938H6.46309C6.71073 8.32534 7.20932 7.62171 7.88584 7.12156C8.56235 6.62142 9.38125 6.35105 10.2226 6.35004H13.7719C13.8701 6.35004 13.9642 6.31105 14.0336 6.24165C14.103 6.17224 14.142 6.07811 14.142 5.97996V4.55723C14.142 4.45908 14.103 4.36494 14.0336 4.29554C13.9642 4.22614 13.8701 4.18715 13.7719 4.18715H10.2226C8.60603 4.18715 7.05571 4.82931 5.91265 5.97237C4.76959 7.11543 4.12742 8.66576 4.12742 10.2823V18.2598C4.12742 18.4561 4.2054 18.6444 4.34421 18.7832C4.48302 18.922 4.67128 19 4.86758 19H8.995C11.5051 19 13.9124 18.0029 15.6873 16.228C17.4622 14.4531 18.4593 12.0458 18.4593 9.53573V0.740163C18.4593 0.543859 18.3813 0.355596 18.2425 0.216789C18.1037 0.0779812 17.9154 0 17.7191 0H9.46427ZM26.3067 15.3653V4.32685C26.3036 4.29321 26.308 4.25931 26.3194 4.22752C26.3308 4.19573 26.349 4.16683 26.3728 4.14284C26.3966 4.11886 26.4254 4.10037 26.457 4.08867C26.4887 4.07698 26.5226 4.07236 26.5563 4.07515H33.8992C33.9331 4.07203 33.9672 4.0764 33.9991 4.08794C34.0311 4.09949 34.0601 4.11793 34.0841 4.14196C34.1081 4.16598 34.1266 4.195 34.1381 4.22696C34.1497 4.25891 34.154 4.29301 34.1509 4.32685V6.44921C34.1524 6.48194 34.1467 6.51458 34.1343 6.54491C34.1219 6.57523 34.1032 6.60253 34.0793 6.62491C34.0553 6.6473 34.0269 6.66425 33.9958 6.67461C33.9647 6.68497 33.9318 6.68848 33.8992 6.68492H29.2471V8.9022H33.1463C33.1801 8.89909 33.2142 8.90345 33.2462 8.915C33.2781 8.92655 33.3071 8.94499 33.3312 8.96901C33.3552 8.99304 33.3736 9.02206 33.3852 9.05401C33.3967 9.08597 33.4011 9.12007 33.398 9.1539V11.2763C33.3994 11.309 33.3937 11.3416 33.3814 11.372C33.369 11.4023 33.3502 11.4296 33.3263 11.452C33.3024 11.4744 33.2739 11.4913 33.2428 11.5017C33.2118 11.512 33.1788 11.5155 33.1463 11.512H29.2471V15.3642C29.2502 15.3981 29.2458 15.4322 29.2343 15.4641C29.2227 15.4961 29.2043 15.5251 29.1803 15.5491C29.1563 15.5731 29.1272 15.5916 29.0953 15.6031C29.0633 15.6147 29.0292 15.619 28.9954 15.6159H26.5563C26.5224 15.619 26.4883 15.6147 26.4564 15.6031C26.4244 15.5916 26.3954 15.5731 26.3714 15.5491C26.3473 15.5251 26.3289 15.4961 26.3174 15.4641C26.3058 15.4322 26.3014 15.3981 26.3046 15.3642L26.3067 15.3653ZM36.621 3.2262C35.74 3.2262 35.0639 3.82345 35.0639 4.70439C35.0639 5.58427 35.7432 6.16658 36.6242 6.16658C37.5051 6.16658 38.1813 5.58533 38.1813 4.70439C38.1813 3.82345 37.5019 3.2262 36.621 3.2262ZM35.2057 7.50293V15.3653C35.2026 15.3991 35.207 15.4332 35.2185 15.4652C35.23 15.4971 35.2485 15.5262 35.2725 15.5502C35.2965 15.5742 35.3256 15.5926 35.3575 15.6042C35.3895 15.6157 35.4236 15.6201 35.4574 15.617H37.7845C37.8184 15.6201 37.8525 15.6157 37.8844 15.6042C37.9164 15.5926 37.9454 15.5742 37.9694 15.5502C37.9935 15.5262 38.0119 15.4971 38.0234 15.4652C38.035 15.4332 38.0394 15.3991 38.0362 15.3653V7.50293C38.0377 7.47021 38.032 7.43756 38.0196 7.40724C38.0072 7.37691 37.9885 7.34962 37.9646 7.32723C37.9407 7.30484 37.9122 7.28789 37.8811 7.27753C37.85 7.26718 37.8171 7.26366 37.7845 7.26723H35.4574C35.4248 7.26366 35.3919 7.26718 35.3608 7.27753C35.3297 7.28789 35.3013 7.30484 35.2774 7.32723C35.2535 7.34962 35.2347 7.37691 35.2223 7.40724C35.2099 7.43756 35.2043 7.47021 35.2057 7.50293ZM39.5465 15.3653V7.50292C39.545 7.4702 39.5507 7.43755 39.5631 7.40723C39.5754 7.3769 39.5942 7.34961 39.6181 7.32722C39.642 7.30483 39.6705 7.28788 39.7016 7.27752C39.7327 7.26717 39.7656 7.26365 39.7982 7.26722H41.7637C41.9216 7.26722 42.0314 7.34614 42.0314 7.50292L42.0624 8.24201C42.6756 7.48692 43.6035 7.11044 44.7041 7.11044C46.6857 7.11044 47.797 8.25801 47.797 10.1767V15.3653C47.8002 15.3991 47.7958 15.4332 47.7842 15.4652C47.7727 15.4971 47.7542 15.5261 47.7302 15.5502C47.7062 15.5742 47.6772 15.5926 47.6452 15.6042C47.6133 15.6157 47.5792 15.6201 47.5453 15.617H45.2203C45.1865 15.6201 45.1524 15.6157 45.1204 15.6042C45.0885 15.5926 45.0595 15.5742 45.0354 15.5502C45.0114 15.5261 44.993 15.4971 44.9814 15.4652C44.9699 15.4332 44.9655 15.3991 44.9686 15.3653V11.2293C44.9686 10.0658 44.6071 9.59436 43.7731 9.59436C42.939 9.59436 42.3738 10.2076 42.3738 11.4341V15.3653C42.3769 15.3991 42.3725 15.4332 42.361 15.4652C42.3495 15.4971 42.331 15.5261 42.307 15.5502C42.283 15.5742 42.2539 15.5926 42.222 15.6042C42.19 15.6157 42.1559 15.6201 42.1221 15.617H39.7971C39.7633 15.6201 39.7292 15.6157 39.6972 15.6042C39.6652 15.5926 39.6362 15.5742 39.6122 15.5502C39.5882 15.5261 39.5697 15.4971 39.5582 15.4652C39.5466 15.4332 39.5423 15.3991 39.5454 15.3653H39.5465ZM48.8518 13.3059C48.695 13.3368 48.6161 13.4467 48.679 13.5885L48.6801 13.5938C49.2144 15.0091 50.5358 15.7791 52.4225 15.7791C54.514 15.7791 56.0231 14.7371 56.0231 13.1374C56.0231 11.7061 55.3149 10.8571 53.1136 10.3068L52.815 10.2279C52.1857 10.0701 51.8871 9.89942 51.8871 9.59866C51.8871 9.2979 52.1698 9.17205 52.5473 9.17205C53.0518 9.17205 53.3493 9.37576 53.585 9.7693C53.6059 9.8282 53.6483 9.87705 53.7037 9.90611C53.759 9.93517 53.8233 9.9423 53.8836 9.92608L55.7074 9.49947C55.8802 9.46854 55.9431 9.35763 55.8802 9.20085C55.3608 7.76958 54.2132 7.10941 52.4364 7.10941C50.4079 7.10941 49.0086 8.17912 49.0086 9.68825C49.0086 10.9627 49.7626 12.0314 51.933 12.5977L52.2476 12.6766C52.9398 12.8654 53.1286 13.0382 53.1286 13.2739C53.1286 13.5725 52.8139 13.7143 52.3265 13.7143C51.7922 13.7143 51.3357 13.5106 51.0531 13.0542C51.026 12.9971 50.9795 12.9515 50.9218 12.9255C50.8642 12.8995 50.7992 12.8948 50.7385 12.9123L48.8518 13.3059ZM56.5841 11.4341C56.5841 8.87446 58.251 7.11044 60.9077 7.11044C62.7784 7.11044 64.2726 7.88047 64.8858 9.67008C64.9014 9.70203 64.909 9.73722 64.9083 9.77274C64.9075 9.80825 64.8983 9.84307 64.8814 9.87433C64.8646 9.90559 64.8405 9.93238 64.8112 9.9525C64.7819 9.97262 64.7483 9.98548 64.7131 9.99004L62.7635 10.5404C62.6986 10.5585 62.6293 10.5525 62.5685 10.5235C62.5077 10.4945 62.4595 10.4444 62.4328 10.3825C62.1342 9.83219 61.6628 9.59649 61.0645 9.59649C59.998 9.59649 59.4647 10.3985 59.4647 11.4362C59.4647 12.474 59.998 13.292 61.0645 13.292C61.6468 13.292 62.1651 13.0403 62.4328 12.459C62.5118 12.3172 62.6056 12.2543 62.7528 12.2862L64.8752 12.8195C65.033 12.8504 65.0949 12.9763 65.033 13.1395C64.3931 14.9323 62.7997 15.7812 60.9131 15.7812C58.2553 15.7812 56.5894 14.0204 56.5894 11.4416L56.5841 11.4341ZM65.9834 4.07513V15.3653L65.9791 15.3642C65.976 15.398 65.9804 15.4322 65.9919 15.4641C66.0035 15.4961 66.0219 15.5251 66.0459 15.5491C66.07 15.5731 66.099 15.5916 66.1309 15.6031C66.1629 15.6147 66.197 15.619 66.2308 15.6159H68.5612C68.595 15.619 68.6291 15.6147 68.6611 15.6031C68.693 15.5916 68.722 15.5731 68.746 15.5491C68.7701 15.5251 68.7885 15.4961 68.8001 15.4641C68.8116 15.4322 68.816 15.398 68.8129 15.3642V11.433C68.8129 10.2065 69.3781 9.59329 70.2121 9.59329C71.0462 9.59329 71.4077 10.0647 71.4077 11.2283V15.3695C71.4046 15.4034 71.4089 15.4375 71.4205 15.4694C71.432 15.5014 71.4505 15.5304 71.4745 15.5544C71.4985 15.5785 71.5275 15.5969 71.5595 15.6084C71.5915 15.62 71.6256 15.6244 71.6594 15.6212H73.9823C74.0161 15.6244 74.0502 15.62 74.0822 15.6084C74.1141 15.5969 74.1431 15.5785 74.1672 15.5544C74.1912 15.5304 74.2096 15.5014 74.2212 15.4694C74.2327 15.4375 74.2371 15.4034 74.234 15.3695V10.1809C74.234 8.26228 73.1173 7.11471 71.1837 7.11471C70.2089 7.11471 69.392 7.42933 68.8097 8.1055V4.07513C68.8128 4.0413 68.8084 4.0072 68.7969 3.97524C68.7853 3.94329 68.7669 3.91427 68.7429 3.89024C68.7188 3.86622 68.6898 3.84778 68.6579 3.83623C68.6259 3.82469 68.5918 3.82032 68.558 3.82344H66.2308C66.1973 3.82098 66.1637 3.82584 66.1323 3.83768C66.1009 3.84952 66.0724 3.86806 66.0488 3.89201C66.0253 3.91595 66.0072 3.94474 65.9959 3.97636C65.9846 4.00798 65.9804 4.04169 65.9834 4.07513ZM75.5511 4.70439C75.5511 3.82345 76.2272 3.2262 77.1082 3.2262C77.9891 3.2262 78.6653 3.82345 78.6653 4.70439C78.6653 5.58533 77.9891 6.16658 77.1093 6.16658C76.2294 6.16658 75.5511 5.58427 75.5511 4.70439ZM75.6929 15.3653V7.50293C75.6915 7.47021 75.6972 7.43756 75.7095 7.40724C75.7219 7.37691 75.7407 7.34962 75.7646 7.32723C75.7885 7.30484 75.817 7.28789 75.848 7.27753C75.8791 7.26718 75.9121 7.26366 75.9446 7.26723H78.2718C78.3043 7.26366 78.3373 7.26718 78.3683 7.27753C78.3994 7.28789 78.4279 7.30484 78.4518 7.32723C78.4757 7.34962 78.4945 7.37691 78.5069 7.40724C78.5192 7.43756 78.5249 7.47021 78.5235 7.50293V15.3653C78.5266 15.3991 78.5222 15.4332 78.5107 15.4652C78.4991 15.4971 78.4807 15.5262 78.4567 15.5502C78.4326 15.5742 78.4036 15.5926 78.3717 15.6042C78.3397 15.6157 78.3056 15.6201 78.2718 15.617H75.9446C75.9108 15.6201 75.8767 15.6157 75.8447 15.6042C75.8128 15.5926 75.7838 15.5742 75.7597 15.5502C75.7357 15.5262 75.7173 15.4971 75.7057 15.4652C75.6942 15.4332 75.6898 15.3991 75.6929 15.3653ZM83.4839 7.11044C81.1567 7.11044 79.5996 8.83926 79.5996 11.4341C79.5996 14.0279 81.1621 15.7738 83.4839 15.7738C84.5376 15.7738 85.3865 15.3653 85.9838 14.6262L86.0147 15.3653C86.0129 15.3988 86.0181 15.4324 86.0301 15.4637C86.0421 15.4951 86.0606 15.5236 86.0843 15.5474C86.1081 15.5711 86.1366 15.5896 86.1679 15.6016C86.1993 15.6136 86.2329 15.6188 86.2664 15.617H88.248C88.2818 15.6201 88.3159 15.6157 88.3479 15.6042C88.3798 15.5926 88.4089 15.5742 88.4329 15.5502C88.4569 15.5261 88.4753 15.4971 88.4869 15.4652C88.4984 15.4332 88.5028 15.3991 88.4997 15.3653V7.50292C88.5011 7.4702 88.4955 7.43755 88.4831 7.40723C88.4707 7.3769 88.4519 7.34961 88.428 7.32722C88.4041 7.30483 88.3756 7.28788 88.3446 7.27752C88.3135 7.26717 88.2806 7.26365 88.248 7.26722H86.2664C86.2338 7.26346 86.2008 7.26685 86.1696 7.27714C86.1385 7.28743 86.1099 7.30437 86.086 7.3268C86.062 7.34923 86.0433 7.37659 86.031 7.40701C86.0186 7.43742 86.0131 7.47015 86.0147 7.50292L85.9838 8.24201C85.3865 7.51892 84.5376 7.11044 83.4839 7.11044ZM84.175 9.59862C85.1967 9.59862 85.8889 10.3452 85.8921 11.4341H85.8889C85.8889 12.5198 85.1967 13.2898 84.175 13.2898C83.1532 13.2898 82.4611 12.523 82.4611 11.4341C82.4611 10.3452 83.1532 9.59862 84.175 9.59862ZM94.1605 15.4443V4.23304C94.1598 4.21079 94.1638 4.18864 94.1724 4.16812C94.181 4.14759 94.194 4.12919 94.2104 4.11417C94.2269 4.09916 94.2464 4.0879 94.2676 4.08117C94.2888 4.07444 94.3112 4.0724 94.3333 4.07519H97.7771C101.708 4.07519 103.595 6.32341 103.595 9.84612C103.595 13.3688 101.708 15.617 97.7771 15.617H94.3333C94.31 15.6196 94.2864 15.6168 94.2643 15.6091C94.2422 15.6013 94.2221 15.5886 94.2056 15.572C94.189 15.5555 94.1763 15.5354 94.1685 15.5133C94.1607 15.4912 94.158 15.4676 94.1605 15.4443ZM95.482 5.31769V14.3745H97.6203C100.713 14.3745 102.228 12.6767 102.228 9.84612C102.228 7.01558 100.719 5.31769 97.6203 5.31769H95.482ZM108.563 7.51896C106.126 7.51896 104.538 9.24886 104.538 11.6389C104.538 14.029 106.122 15.7749 108.563 15.7749C111.004 15.7749 112.604 14.029 112.604 11.6389C112.604 9.24886 111 7.51896 108.563 7.51896ZM108.564 8.68254C110.183 8.68254 111.3 9.8781 111.3 11.6389C111.3 13.4168 110.183 14.6113 108.564 14.6113C106.945 14.6113 105.828 13.4008 105.828 11.6389C105.828 9.87703 106.945 8.68254 108.564 8.68254ZM113.516 11.6389C113.516 9.21686 115.057 7.51896 117.462 7.51896C119.113 7.51896 120.276 8.24206 120.827 9.68933C120.836 9.70957 120.841 9.73167 120.84 9.75395C120.84 9.77622 120.834 9.79807 120.824 9.81783C120.813 9.83759 120.799 9.85474 120.781 9.86796C120.763 9.88117 120.742 9.89012 120.72 9.8941L119.932 10.1319C119.837 10.1639 119.775 10.1159 119.727 10.0253C119.319 9.14434 118.595 8.68893 117.526 8.68893C115.67 8.68893 114.805 10.0754 114.805 11.6453C114.805 13.2152 115.686 14.6113 117.53 14.6113C118.631 14.6113 119.37 14.1079 119.778 13.196C119.785 13.1757 119.795 13.1568 119.809 13.1408C119.823 13.1247 119.84 13.1118 119.86 13.1028C119.879 13.0938 119.9 13.0891 119.921 13.0888C119.942 13.0885 119.964 13.0927 119.983 13.1011L120.836 13.3208C120.859 13.3233 120.88 13.3315 120.899 13.3448C120.917 13.3581 120.932 13.3759 120.941 13.3966C120.951 13.4172 120.955 13.4399 120.953 13.4626C120.951 13.4852 120.943 13.5069 120.93 13.5256C120.349 15.0507 119.106 15.7738 117.47 15.7738C115.049 15.7738 113.524 14.0599 113.524 11.6379L113.516 11.6389ZM121.809 13.6035C121.808 13.6252 121.811 13.647 121.819 13.6674L121.82 13.6642C122.323 15.0795 123.471 15.7716 125.138 15.7716C126.805 15.7716 127.984 14.8758 127.984 13.5074C127.984 12.3119 127.308 11.5418 125.547 11.0854L125.107 10.9787C123.912 10.6641 123.472 10.3345 123.472 9.72129C123.472 9.04831 124.085 8.65477 124.934 8.65477C125.783 8.65477 126.381 9.04725 126.727 9.80234C126.774 9.8962 126.84 9.94312 126.947 9.8962L127.765 9.6445C127.786 9.64042 127.807 9.63122 127.824 9.61766C127.842 9.6041 127.855 9.58658 127.865 9.56655C127.874 9.54652 127.878 9.52456 127.877 9.5025C127.877 9.48044 127.87 9.45892 127.859 9.43973C127.387 8.13324 126.318 7.52 124.95 7.52C123.278 7.52 122.177 8.44787 122.177 9.72129C122.177 10.8689 122.9 11.6869 124.646 12.1743L125.117 12.3001C126.203 12.5988 126.675 12.9294 126.675 13.5426C126.675 14.2817 125.998 14.6273 125.087 14.6273C124.049 14.6273 123.357 14.2657 122.948 13.3378C122.916 13.2429 122.85 13.212 122.743 13.2429L121.925 13.4626C121.904 13.468 121.884 13.4777 121.867 13.4913C121.85 13.5048 121.836 13.5218 121.826 13.5411C121.816 13.5604 121.81 13.5817 121.809 13.6035Z" fill="white"/>
</svg>